<svg width="20" height="20" viewBox="-1 -1 22 22" fill="none" xmlns="http://www.w3.org/2000/svg">
  <path d="
    M1 3
    C1 1.89543 1.89543 1 3 1
    H17
    C18.1046 1 19 1.89543 19 3
    V17
    C19 18.1046 18.1046 19 17 19
    H3
    C1.89543 19 1 18.1046 1 17
    Z
  " fill="white" stroke="white" stroke-width="0.8" vector-effect="non-scaling-stroke"/>
  <path d="M1 17V3C1 1.89543 1.89543 1 3 1H11L4 19H3C1.89543 19 1 18.1046 1 17Z" fill="#ff953c" stroke="#ff953c" stroke-width="0.8" vector-effect="non-scaling-stroke"/>
  <path d="M19 17V3C19 1.89543 18.1046 1 17 1H15L8 19H17C18.1046 19 19 18.1046 19 17Z" fill="#ff953c" stroke="#ff953c" stroke-width="0.8" vector-effect="non-scaling-stroke"/>
</svg>