<?xml version="1.0" encoding="UTF-8" standalone="no"?>
<!DOCTYPE svg PUBLIC "-//W3C//DTD SVG 1.1//EN" "http://www.w3.org/Graphics/SVG/1.1/DTD/svg11.dtd">
<svg xmlns:dc="http://purl.org/dc/elements/1.1/" xmlns:xl="http://www.w3.org/1999/xlink" version="1.1" xmlns="http://www.w3.org/2000/svg" viewBox="-1.2 -.2 348 160" width="348" height="160">
  <defs/>
  <metadata> Produced by OmniGraffle 7.7.1 
    <dc:date>2018-05-30 19:31:27 +0000</dc:date>
  </metadata>
  <g id="Canvas_1" fill-opacity="1" stroke-dasharray="none" stroke="none" stroke-opacity="1" fill="none">
    <title>Canvas 1</title>
    <g id="Canvas_1: Layer 1">
      <title>Layer 1</title>
      <g id="Group_296">
        <g id="Graphic_295">
          <path d="M 49.3094 44.393203 C 42.09929 44.393203 38.416983 49.8 26.005292 49.8 C 11.031438 49.8 -1.2 40.260865 -1.2 24.825747 C -1.2 9.390628 11.031438 -.2 26.005292 -.2 C 38.416983 -.2 42.09929 5.2196704 49.3094 5.2196704 C 56.51951 5.2196704 60.20182 -.2 72.62638 -.2 C 87.63886 -.2 99.8703 9.403502 99.8703 24.825747 C 99.8703 40.24799 87.69036 49.8 72.67788 49.8 C 60.20182 49.8 56.51951 44.393203 49.3094 44.393203 Z" fill="#46b9cc"/>
          <text transform="translate(3.8 15.576001)" fill="black"/>
        </g>
        <g id="Graphic_294">
          <path d="M 66.291785 24.825747 C 66.291785 35.63934 58.68254 44.393203 49.3094 44.393203 C 39.936256 44.393203 32.327014 35.63934 32.327014 24.825747 C 32.327014 14.012152 39.936256 5.271164 49.3094 5.271164 C 58.68254 5.271164 66.291785 14.025026 66.291785 24.825747 Z" fill="#249eb3"/>
        </g>
        <g id="Graphic_293">
          <path d="M 16.245893 34.23615 L 11.340442 34.23615 L 11.340442 19.509063 L 7.284755 19.509063 L 7.284755 15.350978 L 20.314455 15.350978 L 20.314455 19.509063 L 16.245893 19.509063 Z" fill="white"/>
        </g>
        <g id="Graphic_292">
          <path d="M 44.50695 24.439547 C 44.617046 27.23962 43.551886 29.95831 41.568895 31.938567 C 39.585904 33.918825 36.86551 34.980475 34.065166 34.86694 C 31.263734 34.98023 28.542206 33.918945 26.55723 31.939147 C 24.572257 29.95935 23.504108 27.240843 23.610506 24.439547 C 23.610506 18.72379 28.631833 14.720185 34.065166 14.720185 C 39.4985 14.720185 44.50695 18.72379 44.50695 24.439547 Z" fill="white"/>
        </g>
        <g id="Graphic_291">
          <path d="M 68.17156 23.692894 C 68.17156 26.447786 67.91406 28.842225 66.240284 31.159423 C 64.42698 33.619607 61.50392 35.01088 58.45079 34.86694 C 55.75138 35.019185 53.113865 34.02066 51.19227 32.118975 C 49.270677 30.21729 48.244974 27.59055 48.36951 24.890113 C 48.36951 18.749537 52.5282 14.720185 58.66967 14.720185 C 62.33797 14.527664 65.738454 16.638535 67.19305 20.011123 L 62.53223 21.967868 C 61.97913 20.177857 60.32455 18.956676 58.45079 18.95551 C 55.219115 18.95551 53.532464 22.032235 53.532464 24.91586 C 53.532464 27.799485 55.28349 30.824717 58.52804 30.824717 C 59.489304 30.932318 60.45305 30.644915 61.19831 30.028405 C 61.94357 29.411895 62.40642 28.51916 62.48073 27.554892 L 58.42504 27.554892 L 58.42504 23.692894 Z" fill="white"/>
        </g>
        <g id="Graphic_290">
          <path d="M 92.87907 24.439547 C 92.68148 30.06644 88.06202 34.52591 82.43085 34.52591 C 76.79967 34.52591 72.18021 30.06644 71.98262 24.439547 C 71.98262 18.72379 76.99107 14.720185 82.42441 14.720185 C 87.85774 14.720185 92.87907 18.72379 92.87907 24.439547 Z" fill="white"/>
        </g>
        <g id="Graphic_289">
          <path d="M 111.81848 26.833986 L 116.40205 15.350978 L 121.75814 15.350978 L 113.67251 34.23615 L 109.80995 34.23615 L 101.91746 15.338105 L 107.24779 15.338105 Z" fill="#444"/>
        </g>
        <g id="Graphic_288">
          <path d="M 128.69787 30.95345 L 127.41035 34.23615 L 122.26027 34.23615 L 129.48325 15.338105 L 134.83934 15.338105 L 141.95932 34.23615 L 136.69336 34.23615 L 135.47022 30.95345 Z M 132.13555 21.182595 L 130.10126 27.19444 L 134.19558 27.19444 Z" fill="#444"/>
        </g>
        <g id="Graphic_287">
          <path d="M 161.8 34.23615 L 155.68428 34.23615 L 151.04921 26.975592 L 151.04921 34.23615 L 146.09226 34.23615 L 146.09226 15.338105 L 153.43112 15.338105 C 157.16493 15.338105 159.99747 17.127497 159.99747 21.156849 C 160.14342 23.718477 158.38098 25.99669 155.86453 26.49928 Z M 150.99771 23.821627 L 151.4741 23.821627 C 153.0835 23.821627 154.88602 23.512667 154.88602 21.465808 C 154.88602 19.41895 153.0835 19.10999 151.4741 19.10999 L 150.99771 19.10999 Z" fill="#444"/>
        </g>
      </g>
      <g id="Group_411">
        <g id="Graphic_414">
          <circle cx="8.8" cy="61.8" r="10.000015979019" fill="#46b9cc"/>
        </g>
        <g id="Graphic_413">
          <path d="M 5.881818 67.454545 L 4.518182 67.454545 L 4.518182 57.72727 L 1.909091 57.72727 L 1.909091 56.48182 L 8.481818 56.48182 L 8.481818 57.72727 L 5.881818 57.72727 Z" fill="white"/>
        </g>
        <g id="Graphic_412">
          <path d="M 11.745455 64.89091 L 13.709091 60.636364 L 15.163636 60.636364 L 11.727273 67.68182 L 8.327273 60.636364 L 9.8 60.636364 Z" fill="white"/>
        </g>
      </g>
      <g id="Group_407">
        <g id="Graphic_410">
          <circle cx="30.8" cy="61.8" r="10.000015979019" fill="#d37d99"/>
        </g>
        <g id="Graphic_409">
          <path d="M 26.636364 67.454545 L 25.263636 67.454545 L 25.263636 57.72727 L 22.618182 57.72727 L 22.618182 56.48182 L 29.236364 56.48182 L 29.236364 57.72727 L 26.636364 57.72727 Z" fill="white"/>
        </g>
        <g id="Graphic_408">
          <path d="M 29.981818 61.5 C 30.370144 60.86195 31.053514 60.462176 31.8 60.436364 C 32.63146 60.43231 33.39295 60.90119 33.763636 61.645455 C 34.200375 60.903666 34.99378 60.44487 35.854545 60.436364 C 37.672727 60.436364 38.10909 61.83636 38.10909 63.37273 L 38.10909 67.445455 L 36.81818 67.445455 L 36.81818 63.61818 C 36.81818 62.70909 36.7 61.62727 35.554545 61.62727 C 34.154545 61.62727 34.054545 63.08182 34.054545 64.12727 L 34.054545 67.47273 L 32.745455 67.47273 L 32.745455 63.83636 C 32.745455 62.92727 32.745455 61.6 31.49091 61.6 C 30.09091 61.6 29.981818 63.03636 29.981818 64.1 L 29.981818 67.445455 L 28.672727 67.445455 L 28.672727 60.636364 L 29.981818 60.636364 Z" fill="white"/>
        </g>
      </g>
      <g id="Group_404">
        <g id="Graphic_406">
          <circle cx="52.8" cy="61.8" r="10.000015979019" fill="#2b6dbe"/>
        </g>
        <g id="Graphic_405">
          <path d="M 55.41818 60.89091 L 55.41818 56.48182 L 56.78182 56.48182 L 56.78182 67.454545 L 55.41818 67.454545 L 55.41818 62.18182 L 50.19091 62.18182 L 50.19091 67.445455 L 48.81818 67.445455 L 48.81818 56.48182 L 50.18182 56.48182 L 50.18182 60.89091 Z" fill="white"/>
        </g>
      </g>
      <g id="Group_401">
        <g id="Graphic_403">
          <circle cx="74.8" cy="61.8" r="10.000015979019" fill="#5a8c35"/>
        </g>
        <g id="Graphic_402">
          <path d="M 71.69091 56.48182 L 77.58182 56.48182 L 77.58182 57.72727 L 73.03636 57.72727 L 73.03636 60.8 L 77.42727 60.8 L 77.42727 62.054545 L 73.06364 62.054545 L 73.06364 66.2 L 77.60909 66.2 L 77.60909 67.454545 L 71.69091 67.454545 Z" fill="white"/>
        </g>
      </g>
      <g id="Group_398">
        <g id="Graphic_400">
          <circle cx="96.8" cy="61.8" r="10.000015979019" fill="#f8ac6b"/>
        </g>
        <g id="Graphic_399">
          <path d="M 100.66364 58.57273 C 99.36 57.404615 97.4845 57.12856 95.89956 57.871495 C 94.31463 58.61443 93.32704 60.232564 93.39091 61.98182 C 93.32096 63.734125 94.31774 65.354705 95.91323 66.082645 C 97.50872 66.810586 99.386 66.5013 100.66364 65.3 L 100.66364 66.91818 C 99.78463 67.41727 98.7926 67.68327 97.78182 67.69091 C 96.27176 67.70058 94.81997 67.10873 93.74707 66.04607 C 92.67418 64.9834 92.06844 63.53735 92.06364 62.02727 C 92.06108 60.4844 92.67722 59.00492 93.77416 57.91994 C 94.8711 56.83496 96.35725 56.235075 97.9 56.254545 C 98.85988 56.251036 99.80263 56.50872 100.62727 57 Z" fill="white"/>
        </g>
      </g>
      <g id="Group_395">
        <g id="Graphic_397">
          <rect x="-1.2" y="73.8" width="20" height="20" fill="#c68fcf"/>
        </g>
        <g id="Graphic_396">
          <path d="M 10.481818 81.64344 C 10.192871 81.0648 9.591736 80.7091 8.945455 80.73435 C 8.129355 80.6813 7.417893 81.28424 7.336364 82.097985 C 7.336364 82.85253 8.072727 83.24344 8.672727 83.47071 L 9.363636 83.73435 C 10.727273 84.27071 11.745455 85.02526 11.745455 86.62526 C 11.75346 87.43526 11.429565 88.21323 10.849106 88.77823 C 10.268646 89.34324 9.482215 89.64602 8.672727 89.61617 C 7.129068 89.6081 5.845139 88.42657 5.709091 86.88889 L 6.918182 86.63435 C 6.933244 87.6385 7.759482 88.44032 8.763636 88.42526 C 9.76779 88.4102 10.569608 87.58396 10.554546 86.5798 C 10.554546 85.55253 9.727273 85.10708 8.9 84.76162 L 8.236364 84.4798 C 7.145455 84.00708 6.1454546 83.38889 6.1454546 82.04344 C 6.180052 81.33522 6.50042 80.67132 7.0333 80.20355 C 7.56618 79.73578 8.265998 79.50415 8.972727 79.56162 C 10.005993 79.53878 10.963399 80.10196 11.445455 81.01617 Z" fill="white"/>
        </g>
      </g>
      <g id="Group_390">
        <g id="Graphic_394">
          <rect x="20.8" y="73.8" width="20" height="20" fill="#4bb9cc"/>
        </g>
        <g id="Graphic_393">
          <rect x="24.072728" y="79.25384" width="1.2818182" height="10.118182" fill="white"/>
        </g>
        <g id="Graphic_392">
          <path d="M 28.3 83.93565 C 28.69831 83.27554 29.42018 82.8799 30.19091 82.89929 C 31.963637 82.89929 32.418182 84.0902 32.418182 85.62656 L 32.418182 89.37202 L 31.236364 89.37202 L 31.236364 85.73565 C 31.236364 84.66293 31.09091 83.91747 29.854546 83.91747 C 28.3 83.91747 28.3 85.2902 28.3 86.42656 L 28.3 89.37202 L 27.09091 89.37202 L 27.09091 83.09929 L 28.3 83.09929 Z" fill="white"/>
        </g>
        <g id="Graphic_391">
          <path d="M 36.636364 84.52656 C 36.49808 84.19959 36.182114 83.98303 35.827273 83.97202 C 35.479515 83.97148 35.192047 84.24298 35.172728 84.5902 C 35.172728 85.14475 35.9 85.38111 36.636364 85.71747 C 37.372728 86.05384 38.08182 86.50838 38.08182 87.53565 C 38.07471 88.09985 37.84183 88.63768 37.435235 89.0289 C 37.02864 89.42012 36.482238 89.63211 35.918182 89.61747 C 34.974644 89.63379 34.115384 89.07653 33.745455 88.20838 L 34.78182 87.73565 C 34.959868 88.21208 35.40972 88.53238 35.918182 88.54475 C 36.42026 88.54475 36.827273 88.13773 36.827273 87.63565 C 36.824723 87.34088 36.65074 87.07458 36.38182 86.95384 L 35.2 86.32656 C 34.5 85.95384 33.99091 85.59929 33.99091 84.74475 C 33.99091 84.26253 34.182467 83.80007 34.523443 83.4591 C 34.864418 83.11812 35.32688 82.92656 35.80909 82.92656 C 36.573857 82.88517 37.286754 83.31363 37.60909 84.00838 Z" fill="white"/>
        </g>
      </g>
      <g id="Group_385">
        <g id="Graphic_389">
          <rect x="42.8" y="73.8" width="20" height="20" fill="#d1804d"/>
        </g>
        <g id="Graphic_388">
          <path d="M 45.163637 79.627155 L 47.145455 79.627155 C 50.09091 79.627155 52.536364 81.1817 52.536364 84.37261 C 52.536364 87.56352 50.145455 89.22715 47.08182 89.22715 L 45.163637 89.22715 Z M 46.345455 88.13625 L 46.763637 88.13625 C 49.20909 88.13625 51.30909 87.22715 51.30909 84.42715 C 51.30909 81.627155 49.19091 80.71806 46.763637 80.71806 L 46.345455 80.71806 Z" fill="white"/>
        </g>
        <g id="Graphic_387">
          <path d="M 53.336364 86.43625 C 53.309196 86.94068 53.486966 87.43469 53.82932 87.80614 C 54.17168 88.1776 54.64958 88.39499 55.154546 88.40897 C 55.937786 88.42531 56.65441 87.97025 56.97273 87.25443 L 57.936364 87.79988 C 57.395253 88.80215 56.348096 89.42695 55.20909 89.42715 C 54.392477 89.43756 53.60933 89.10315 53.05209 88.50611 C 52.494854 87.90907 52.21519 87.10475 52.28182 86.29079 C 52.28182 84.47261 53.26364 83.0817 55.18182 83.0817 C 57.1 83.0817 57.97273 84.4817 57.97273 86.25443 L 57.97273 86.43625 Z M 56.736364 85.52715 C 56.63355 84.70329 55.920786 84.09291 55.09091 84.11806 C 54.23295 84.12017 53.509525 84.75803 53.4 85.60897 Z" fill="white"/>
        </g>
        <g id="Graphic_386">
          <rect x="58.90909" y="78.17261" width="1.1454545" height="11.054545" fill="white"/>
        </g>
      </g>
      <g id="Group_380">
        <g id="Graphic_384">
          <rect x="64.8" y="73.8" width="20" height="20" fill="#abb900"/>
        </g>
        <g id="Graphic_383">
          <rect x="67.89091" y="79.62273" width="1.1909091" height="9.6" fill="white"/>
        </g>
        <g id="Graphic_382">
          <path d="M 71.9 84.06818 C 72.282674 83.43489 72.97876 83.059 73.71818 83.08636 C 75.4 83.08636 75.836365 84.22273 75.836365 85.66818 L 75.836365 89.22273 L 74.69091 89.22273 L 74.69091 85.81364 C 74.69091 84.79545 74.55455 84.10455 73.38182 84.10455 C 71.90909 84.10455 71.90909 85.40455 71.90909 86.48636 L 71.90909 89.21364 L 70.75455 89.21364 L 70.75455 83.26818 L 71.9 83.26818 Z" fill="white"/>
        </g>
        <g id="Graphic_381">
          <path d="M 81.51818 88.29545 C 81.07477 88.9892 80.3141 89.41559 79.49091 89.43182 C 77.67273 89.43182 76.63636 87.91364 76.63636 86.21364 C 76.58167 85.42579 76.84862 84.64941 77.37627 84.06181 C 77.90392 83.4742 78.647195 83.12554 79.43636 83.09545 C 80.2838 83.10081 81.06805 83.54454 81.50909 84.26818 L 81.50909 78.16818 L 82.65455 78.16818 L 82.65455 89.22273 L 81.51818 89.22273 Z M 81.58182 86.24091 C 81.65281 85.51437 81.30525 84.81052 80.68524 84.42519 C 80.06522 84.03987 79.28023 84.03987 78.66022 84.42519 C 78.04021 84.81052 77.69265 85.51437 77.76364 86.24091 C 77.66058 86.98587 78.00026 87.72272 78.63365 88.12819 C 79.26704 88.53365 80.07842 88.53365 80.71181 88.12819 C 81.3452 87.72272 81.68488 86.98587 81.58182 86.24091 Z" fill="white"/>
        </g>
      </g>
      <g id="Group_375">
        <g id="Graphic_379">
          <rect x="86.8" y="73.8" width="20" height="20" fill="#f77a6f"/>
        </g>
        <g id="Graphic_378">
          <path d="M 92.49091 81.44445 C 92.20196 80.8658 91.60083 80.5101 90.95455 80.53536 C 90.13845 80.48231 89.42698 81.08524 89.34546 81.89899 C 89.34546 82.65354 90.08182 83.04445 90.68182 83.27172 L 91.36364 83.54445 C 92.72727 84.08081 93.74546 84.83536 93.74546 86.43536 C 93.75346 87.24535 93.42957 88.02333 92.84911 88.58833 C 92.26865 89.15334 91.48222 89.45612 90.67273 89.42626 C 89.12907 89.4182 87.84514 88.23667 87.70909 86.69899 L 88.91818 86.44445 C 88.93325 87.4486 89.75948 88.25042 90.76364 88.23536 C 91.76779 88.22029 92.56961 87.39406 92.55455 86.3899 C 92.55455 85.36263 91.72727 84.91717 90.9 84.57172 L 90.23636 84.2899 C 89.14546 83.81717 88.14546 83.19899 88.14546 81.85354 C 88.19405 81.15333 88.52176 80.50195 89.05504 80.04559 C 89.58832 79.58922 90.28251 79.36609 90.98182 79.42626 C 92.01508 79.40342 92.97249 79.9666 93.45455 80.88081 Z" fill="white"/>
        </g>
        <g id="Graphic_377">
          <path d="M 95.07273 83.27172 L 95.07273 86.57172 C 95.07273 87.52626 95.31818 88.3899 96.44546 88.3899 C 97.57273 88.3899 97.81818 87.55354 97.81818 86.57172 L 97.81818 83.27172 L 98.96364 83.27172 L 98.96364 86.69899 C 98.96364 88.32626 98.2 89.42626 96.44546 89.42626 C 94.69091 89.42626 93.92727 88.31717 93.92727 86.69899 L 93.92727 83.27172 Z" fill="white"/>
        </g>
        <g id="Graphic_376">
          <path d="M 99.77273 78.17172 L 100.91818 78.17172 L 100.91818 84.26263 C 101.35922 83.53898 102.14347 83.09526 102.99091 83.0899 C 103.78489 83.11276 104.53525 83.45828 105.06879 84.04672 C 105.60233 84.63516 105.87295 85.41566 105.81818 86.20808 C 105.81818 87.91717 104.8 89.42626 102.96364 89.42626 C 102.14045 89.41003 101.37978 88.98365 100.93636 88.2899 L 100.93636 89.19899 L 99.77273 89.19899 Z M 104.67273 86.24445 C 104.74372 85.51791 104.39616 84.81406 103.77615 84.42873 C 103.15613 84.0434 102.37114 84.0434 101.75113 84.42873 C 101.13112 84.81406 100.78356 85.51791 100.85455 86.24445 C 100.75149 86.9894 101.09117 87.72626 101.72456 88.13173 C 102.35795 88.53719 103.16933 88.53719 103.80272 88.13173 C 104.4361 87.72626 104.77579 86.9894 104.67273 86.24445 Z" fill="white"/>
        </g>
      </g>
      <g id="Group_371">
        <g id="Graphic_374">
          <rect x="108.8" y="73.8" width="20" height="20" fill="#e3b938"/>
        </g>
        <g id="Graphic_373">
          <path d="M 117.03637 81.60909 C 116.74742 81.03045 116.14628 80.67475 115.5 80.7 C 114.6839 80.64696 113.97244 81.24989 113.89091 82.06364 C 113.89091 82.81818 114.62727 83.20909 115.22727 83.43636 L 115.91818 83.7 C 117.28182 84.23636 118.3 84.99091 118.3 86.59091 C 118.31315 87.40569 117.99024 88.18993 117.40719 88.75922 C 116.82414 89.3285 116.03241 89.6326 115.21818 89.6 C 113.67452 89.59193 112.3906 88.4104 112.25455 86.87273 L 113.4 86.65455 C 113.41506 87.6587 114.2413 88.46052 115.24546 88.44546 C 116.24961 88.43039 117.05143 87.60416 117.03637 86.6 C 117.03637 85.57273 116.20909 85.12727 115.38182 84.78182 L 114.71818 84.5 C 113.62727 84.02727 112.62727 83.40909 112.62727 82.06364 C 112.66387 81.35187 112.98906 80.68578 113.52775 80.21914 C 114.06645 79.75249 114.77211 79.52563 115.48182 79.59091 C 116.50986 79.569775 117.4624 80.12864 117.94546 81.036365 Z" fill="white"/>
        </g>
        <g id="Graphic_372">
          <path d="M 125.02727 89.39091 L 123.88182 89.39091 L 123.88182 88.48182 C 123.44073 89.17802 122.67862 89.60522 121.85455 89.61818 C 120.03637 89.61818 119 88.1 119 86.4 C 118.94526 85.60911 119.21466 84.82999 119.74624 84.24183 C 120.27781 83.65367 121.0258 83.30709 121.81818 83.28182 C 122.66285 83.28857 123.44374 83.73234 123.88182 84.45455 L 123.88182 83.43636 L 125.02727 83.43636 Z M 123.94546 86.40909 C 124.01644 85.68256 123.66889 84.9787 123.04887 84.59338 C 122.42886 84.20805 121.64387 84.20805 121.02386 84.59338 C 120.40384 84.9787 120.05629 85.68256 120.12727 86.40909 C 120.02422 87.15405 120.3639 87.89091 120.99729 88.29637 C 121.63067 88.70184 122.44206 88.70184 123.07544 88.29637 C 123.70883 87.89091 124.04851 87.15405 123.94546 86.40909 Z" fill="white"/>
        </g>
      </g>
      <g id="Group_368">
        <g id="Graphic_370">
          <path d="M 10.3 95.8 L -1.2 115.8 L 21.8 115.8 Z" fill="#ff5e5e"/>
        </g>
        <g id="Graphic_369">
          <path d="M 9.240551 113.76364 L 8.045276 113.76364 L 8.045276 104.16364 L 9.412598 104.16364 C 12.382677 104.16364 13.288189 105.18182 13.288189 106.93636 C 13.288189 108.96364 11.748819 109.73636 9.937795 109.73636 L 9.249606 109.73636 Z M 9.240551 108.67273 L 9.620866 108.67273 C 10.834252 108.67273 12.156299 108.44545 12.156299 106.91818 C 12.156299 105.39091 10.734646 105.23636 9.55748 105.23636 L 9.240551 105.23636 Z" fill="white"/>
        </g>
      </g>
      <g id="Group_364">
        <g id="Graphic_367">
          <path d="M 35.3 95.8 L 23.8 115.8 L 46.8 115.8 Z" fill="#9585ff"/>
        </g>
        <g id="Graphic_366">
          <path d="M 32.31181 112.67273 L 35.218504 112.67273 L 35.218504 113.76364 L 31.12559 113.76364 L 31.12559 104.16364 L 32.31181 104.16364 Z" fill="white"/>
        </g>
        <g id="Graphic_365">
          <path d="M 36.92992 107.43636 C 37.37203 106.70094 38.166056 106.25233 39.021654 106.25455 C 39.807716 106.28463 40.54807 106.63329 41.07364 107.2209 C 41.59921 107.8085 41.865114 108.58488 41.81063 109.37273 C 41.81063 111.08182 40.796457 112.59091 38.967323 112.59091 C 38.147374 112.57468 37.3897 112.1483 36.94803 111.45455 L 36.94803 115.8 L 35.788976 115.8 L 35.788976 106.43636 L 36.92992 106.43636 Z M 40.669685 109.42727 C 40.740393 108.70074 40.394205 107.99688 39.77663 107.61156 C 39.15906 107.22623 38.37716 107.22623 37.75959 107.61156 C 37.142015 107.99688 36.79583 108.70074 36.866535 109.42727 C 36.763883 110.17223 37.102227 110.90909 37.73312 111.31455 C 38.364016 111.72002 39.172205 111.72002 39.8031 111.31455 C 40.433993 110.90909 40.77234 110.17223 40.669685 109.42727 Z" fill="white"/>
        </g>
      </g>
      <g id="Group_361">
        <g id="Graphic_363">
          <path d="M 60.3 95.8 L 48.8 115.8 L 71.8 115.8 Z" fill="#898989"/>
        </g>
        <g id="Graphic_362">
          <path d="M 57.972835 105.07273 L 57.972835 110.73636 C 57.972835 112.3 58.4437 113.75455 60.28189 113.75455 C 62.12008 113.75455 62.590945 112.3 62.590945 110.73636 L 62.590945 105.07273 L 63.78622 105.07273 L 63.78622 111.14545 C 63.87161 112.1228 63.53794 113.09035 62.868876 113.80545 C 62.19981 114.52055 61.25882 114.91537 60.28189 114.89091 C 59.30839 114.91485 58.37059 114.52245 57.70216 113.8115 C 57.03373 113.10055 56.697616 112.13798 56.77756 111.16364 L 56.77756 105.07273 Z" fill="white"/>
        </g>
      </g>
      <g id="Group_357">
        <g id="Graphic_360">
          <path d="M 85.3 95.8 L 73.8 115.8 L 96.8 115.8 Z" fill="#5dafd9"/>
        </g>
        <g id="Graphic_359">
          <path d="M 82.31181 113.58182 L 85.2185 113.58182 L 85.2185 114.67273 L 81.12559 114.67273 L 81.12559 105.07273 L 82.31181 105.07273 Z" fill="white"/>
        </g>
        <g id="Graphic_358">
          <path d="M 85.78898 103.61818 L 86.92992 103.61818 L 86.92992 109.70909 C 87.37203 108.97367 88.16606 108.52505 89.02165 108.52727 C 89.80772 108.55736 90.54807 108.90602 91.07364 109.49362 C 91.59921 110.08123 91.86511 110.85761 91.81063 111.64545 C 91.81063 113.35455 90.79646 114.86364 88.96732 114.86364 C 88.14737 114.8474 87.3897 114.42102 86.94803 113.72727 L 86.94803 114.63636 L 85.78898 114.63636 Z M 90.66969 111.69091 C 90.74039 110.96437 90.3942 110.26052 89.77663 109.87519 C 89.15906 109.48987 88.37716 109.48987 87.75959 109.87519 C 87.14202 110.26052 86.79583 110.96437 86.86654 111.69091 C 86.76388 112.43587 87.10223 113.17272 87.73312 113.57819 C 88.36402 113.98365 89.1722 113.98365 89.8031 113.57819 C 90.43399 113.17272 90.77234 112.43587 90.66969 111.69091 Z" fill="white"/>
        </g>
      </g>
      <g id="Group_354">
        <g id="Graphic_356">
          <path d="M 110.3 95.8 L 98.8 115.8 L 121.8 115.8 Z" fill="#72c930"/>
        </g>
        <g id="Graphic_355">
          <path d="M 107.69213 105.07273 L 108.86024 105.07273 C 110.67126 105.07273 112.36457 105.54545 112.36457 107.70909 C 112.37665 108.45647 111.98523 109.15199 111.34134 109.52727 C 112.49046 109.77439 113.30561 110.80212 113.28819 111.98182 C 113.28819 113.90909 111.64921 114.70909 109.96496 114.70909 L 107.69213 114.70909 Z M 108.8874 109.32727 L 109.19528 109.32727 C 110.32717 109.32727 111.25079 109.1 111.25079 107.72727 C 111.25079 106.35455 110.34528 106.14545 109.22244 106.14545 L 108.89646 106.14545 Z M 108.8874 113.60909 L 109.79291 113.60909 C 110.89764 113.60909 112.04764 113.28182 112.04764 111.91818 C 112.04764 110.55455 110.68031 110.29091 109.61181 110.29091 L 108.87835 110.29091 Z" fill="white"/>
        </g>
      </g>
      <g id="Group_351">
        <g id="Graphic_353">
          <path d="M 135.3 95.8 L 123.8 115.8 L 146.8 115.8 Z" fill="#d876e3"/>
        </g>
        <g id="Graphic_352">
          <path d="M 138.95827 106 C 137.82222 104.97807 136.18791 104.73645 134.80666 105.38622 C 133.42541 106.036 132.5645 107.45143 132.61969 108.98182 C 132.5636 110.51295 133.43325 111.92677 134.82198 112.56213 C 136.21072 113.1975 137.84407 112.92885 138.95827 111.88182 L 138.95827 113.3 C 138.20165 113.73348 137.3482 113.96802 136.47717 113.98182 C 135.16038 113.9915 133.89395 113.47435 132.95773 112.54467 C 132.02151 111.61499 131.49257 110.34929 131.4878 109.02727 C 131.48776 107.68281 132.02221 106.39394 132.97254 105.44668 C 133.92287 104.49942 135.21047 103.97213 136.5496 103.98182 C 137.39625 103.97122 138.2295 104.19451 138.95827 104.62727 Z" fill="white"/>
        </g>
      </g>
      <g id="Group_347">
        <g id="Graphic_350">
          <path d="M 160.3 95.8 L 148.8 115.8 L 171.8 115.8 Z" fill="#c7b900"/>
        </g>
        <g id="Graphic_349">
          <path d="M 155.18992 105.8 L 157.04476 105.8 C 159.82702 105.8 162.14556 107.24545 162.14556 110.20909 C 162.14556 113.17273 159.88266 114.75455 157.00766 114.75455 L 155.15282 114.75455 Z M 156.32137 113.69091 L 156.72016 113.69091 C 159.03871 113.69091 161.03266 112.83636 161.03266 110.25455 C 161.03266 107.67273 159.00161 106.78182 156.72016 106.78182 L 156.33065 106.78182 Z" fill="white"/>
        </g>
        <g id="Graphic_348">
          <path d="M 164.34355 110.03636 C 164.5729 109.39634 165.19104 108.96928 165.88306 108.97273 C 166.21274 108.9729 166.53515 109.06772 166.81048 109.24545 L 166.31895 110.21818 C 166.1357 110.05899 165.89567 109.97729 165.6512 109.99091 C 164.48266 109.99091 164.33427 111.05455 164.33427 111.95455 L 164.33427 114.68182 L 163.25847 114.68182 L 163.25847 109.14545 L 164.34355 109.14545 Z" fill="white"/>
        </g>
      </g>
      <g id="Group_343">
        <g id="Graphic_346">
          <path d="M 185.3 95.8 L 173.8 115.8 L 196.8 115.8 Z" fill="#c7b900"/>
        </g>
        <g id="Graphic_345">
          <path d="M 181.13589 112.26364 L 180.02298 114.67273 L 178.70605 114.67273 L 183.34315 104.67273 L 187.98024 114.67273 L 186.78387 114.67273 L 185.67097 112.26364 Z M 183.38024 107.28182 L 181.64597 111.17273 L 185.1238 111.17273 Z" fill="white"/>
        </g>
        <g id="Graphic_344">
          <path d="M 190.53992 110.07273 C 190.39563 109.77404 190.09735 109.57563 189.76089 109.55455 C 189.423 109.5491 189.1408 109.80569 189.12097 110.13636 C 189.12097 110.65455 189.8258 110.89091 190.53992 111.20909 C 191.25403 111.52727 191.94032 111.96364 191.94032 112.9 C 191.93797 113.43682 191.71556 113.95019 191.32312 114.32462 C 190.93067 114.69905 190.40114 114.90311 189.85363 114.89091 C 188.92183 114.91936 188.0691 114.3802 187.7113 113.53636 L 188.75 113.07273 C 188.9242 113.52436 189.36115 113.82671 189.85363 113.83636 C 190.09113 113.8513 190.32453 113.7704 190.49968 113.61246 C 190.67482 113.45451 190.77647 113.23324 190.78105 113 C 190.77825 112.72205 190.61208 112.47064 190.35444 112.35455 L 189.2137 111.75455 C 188.5367 111.4 188.04516 111.06364 188.04516 110.25455 C 188.04761 109.79403 188.2366 109.35333 188.57053 109.02941 C 188.90447 108.70548 189.356 108.52486 189.8258 108.52727 C 190.53805 108.53441 191.1832 108.9407 191.48589 109.57273 Z" fill="white"/>
        </g>
      </g>
      <g id="Group_340">
        <g id="Graphic_342">
          <path d="M 210.3 95.8 L 198.8 115.8 L 221.8 115.8 Z" fill="#c7b900"/>
        </g>
        <g id="Graphic_341">
          <path d="M 214.04677 114.67273 L 212.5629 114.67273 L 209.67863 110.60909 L 209.16855 110.60909 L 209.16855 114.67273 L 207.95363 114.67273 L 207.95363 105.07273 L 209.4375 105.07273 C 210.32473 105.00057 211.21595 105.154 212.025 105.51818 C 212.83543 106.00681 213.3248 106.87649 213.31411 107.80909 C 213.38224 109.18379 212.35292 110.3755 210.95847 110.53636 Z M 209.17782 109.61818 L 209.56734 109.61818 C 210.81008 109.61818 212.16411 109.39091 212.16411 107.86364 C 212.16411 106.33636 210.70806 106.14545 209.50242 106.14545 L 209.17782 106.14545 Z" fill="white"/>
        </g>
      </g>
      <g id="Group_336">
        <g id="Graphic_339">
          <path d="M 235.3 95.8 L 223.8 115.8 L 246.8 115.8 Z" fill="#c7b900"/>
        </g>
        <g id="Graphic_338">
          <path d="M 233.09124 114.67273 L 231.86705 114.67273 L 231.86705 105.07273 L 233.26745 105.07273 C 236.28156 105.07273 237.21826 106.09091 237.21826 107.84545 C 237.21826 109.87273 235.64164 110.64545 233.7868 110.64545 L 233.08197 110.64545 Z M 233.09124 109.58182 L 233.48076 109.58182 C 234.7235 109.58182 236.07753 109.35455 236.07753 107.82727 C 236.07753 106.3 234.62148 106.14545 233.41584 106.14545 L 233.09124 106.14545 Z" fill="white"/>
        </g>
        <g id="Graphic_337">
          <path d="M 238.76705 109.68182 C 239.01673 108.97635 239.70266 108.50973 240.46422 108.52727 C 240.79428 108.54155 241.11445 108.64198 241.39164 108.81818 L 240.863 109.86364 C 240.66588 109.6951 240.41024 109.60723 240.1489 109.61818 C 238.8876 109.61818 238.72995 110.76364 238.72995 111.73636 L 238.72995 114.66364 L 237.5985 114.66364 L 237.5985 108.70909 L 238.76705 108.70909 Z" fill="white"/>
        </g>
      </g>
      <g id="Group_332">
        <g id="Graphic_335">
          <path d="M 260.3 95.8 L 248.8 115.8 L 271.8 115.8 Z" fill="#c7b900"/>
        </g>
        <g id="Graphic_334">
          <path d="M 255.29043 112.10476 L 254.17753 114.51385 L 252.8606 114.51385 L 257.4977 104.51385 L 262.1348 114.51385 L 260.9106 114.51385 L 259.7977 112.10476 Z M 257.5348 107.12294 L 255.8469 111.01385 L 259.27834 111.01385 Z" fill="white"/>
        </g>
        <g id="Graphic_333">
          <path d="M 265.26947 104.62294 C 265.02793 104.49364 264.7636 104.41036 264.49043 104.37749 C 263.65576 104.37749 263.65576 105.40476 263.65576 105.99567 L 263.65576 108.55021 L 265.26947 108.55021 L 265.26947 109.62294 L 263.65576 109.62294 L 263.65576 114.51385 L 262.4872 114.51385 L 262.4872 109.62294 L 261.95858 109.62294 L 261.95858 108.55021 L 262.4872 108.55021 L 262.4872 105.65021 C 262.4872 104.35021 262.94164 103.30476 264.45334 103.30476 C 264.73295 103.3047 265.01 103.35716 265.26947 103.4593 Z" fill="white"/>
        </g>
      </g>
      <g id="Group_328">
        <g id="Graphic_331">
          <path d="M 285.3 95.8 L 273.8 115.8 L 296.8 115.8 Z" fill="#c7b900"/>
        </g>
        <g id="Graphic_330">
          <path d="M 285.5498 107.42311 C 284.55268 106.54736 283.1183 106.34018 281.90584 106.89679 C 280.6934 107.4534 279.9374 108.66613 279.9853 109.97766 C 279.93243 111.29166 280.69592 112.50638 281.917 113.05099 C 283.13807 113.5956 284.57393 113.3618 285.5498 112.45948 L 285.5498 113.66857 C 284.87954 114.04256 284.12304 114.24281 283.35183 114.25039 C 282.1975 114.25764 281.08777 113.81385 280.26804 113.01715 C 279.4483 112.22045 278.98613 111.13647 278.9837 110.00493 C 278.9811 108.84859 279.45177 107.73955 280.29026 106.92617 C 281.12875 106.11279 282.265 105.66305 283.44457 105.67766 C 284.18802 105.66843 284.91967 105.86031 285.5591 106.2322 Z" fill="white"/>
        </g>
        <g id="Graphic_329">
          <path d="M 290.24256 113.31402 C 289.8551 113.90814 289.1904 114.27315 288.4712 114.28675 C 287.76328 114.27179 287.0933 113.97005 286.6206 113.45329 C 286.1479 112.93653 285.9147 112.25091 285.97643 111.55948 C 285.92822 110.88409 286.16152 110.21842 286.623 109.71467 C 287.08445 109.21092 287.7346 108.91218 288.4248 108.88675 C 289.18012 108.87462 289.88563 109.25499 290.27965 109.88675 L 290.27965 104.65039 L 291.28127 104.65039 L 291.28127 114.11402 L 290.24256 114.11402 Z M 290.2982 111.55948 C 290.3656 110.93368 290.06296 110.325 289.5186 109.99146 C 288.97423 109.65791 288.28346 109.65791 287.7391 109.99146 C 287.19473 110.325 286.8921 110.93368 286.9595 111.55948 C 286.8921 112.18528 287.19473 112.79395 287.7391 113.1275 C 288.28346 113.46105 288.97423 113.46105 289.5186 113.1275 C 290.06296 112.79395 290.3656 112.18528 290.2982 111.55948 Z" fill="white"/>
        </g>
      </g>
      <g id="Group_325">
        <g id="Graphic_327">
          <path d="M 310.3 95.8 L 298.8 115.8 L 321.8 115.8 Z" fill="#c7b900"/>
        </g>
        <g id="Graphic_326">
          <path d="M 315.67903 109.87273 C 315.69413 111.2097 315.15835 112.4961 314.19297 113.44068 C 313.2276 114.38526 311.9143 114.90813 310.5504 114.89091 C 309.18975 114.90805 307.87933 114.38765 306.9145 113.44704 C 305.9497 112.50642 305.4117 111.22474 305.42177 109.89091 C 305.42177 107.11191 307.72 104.85909 310.55504 104.85909 C 313.39006 104.85909 315.6883 107.11191 315.6883 109.89091 Z M 314.45484 109.87273 C 314.5251 108.45922 313.79578 107.12259 312.55736 106.39521 C 311.31895 105.66782 309.7726 105.66782 308.53417 106.39521 C 307.29575 107.12259 306.56644 108.45922 306.6367 109.87273 C 306.56644 111.28623 307.29575 112.62286 308.53417 113.35025 C 309.7726 114.07763 311.31895 114.07763 312.55736 113.35025 C 313.79578 112.62286 314.5251 111.28623 314.45484 109.87273 Z" fill="white"/>
        </g>
      </g>
      <g id="Group_321">
        <g id="Graphic_324">
          <path d="M 335.3 95.8 L 323.8 115.8 L 346.8 115.8 Z" fill="#444"/>
        </g>
        <g id="Graphic_323">
          <path d="M 335.3 98.94704 L 326.41364 114.40159 L 344.18636 114.40159 Z" fill="white"/>
          <path d="M 335.3 98.94704 L 326.41364 114.40159 L 344.18636 114.40159 Z" stroke="white" stroke-linecap="round" stroke-linejoin="round" stroke-width="1"/>
        </g>
        <g id="Graphic_322">
          <path d="M 331.712 104.89091 L 338.0219 111.5228 L 338.0219 105.292 L 339.072 105.292 L 339.072 114.06923 L 332.7621 107.43733 L 332.7621 113.72411 L 331.712 113.72411 Z" fill="#444"/>
        </g>
      </g>
      <g id="Group_318">
        <g id="Graphic_320">
          <path d="M -.55298016 126.23796 L 7.237956 118.44702 C 8.100649 117.58433 9.499351 117.58433 10.362044 118.44702 L 18.15298 126.23796 C 19.015673 127.10065 19.015673 128.49935 18.15298 129.36204 L 10.362044 137.15298 C 9.499351 138.01567 8.100649 138.01567 7.237956 137.15298 L -.55298016 129.36204 C -1.4156733 128.49935 -1.4156733 127.10065 -.55298016 126.23796 Z" fill="#ff5e5e"/>
        </g>
        <g id="Graphic_319">
          <path d="M 5.385179 123.59096 L 7.3760635 123.59096 C 10.321482 123.59096 12.766907 125.14549 12.766907 128.33636 C 12.766907 131.52723 10.376027 133.19084 7.312428 133.19084 L 5.385179 133.19084 Z M 6.585164 132.09995 L 6.985159 132.09995 C 9.430584 132.09995 11.530558 131.19087 11.530558 128.3909 C 11.530558 125.59094 9.448766 124.69095 6.985159 124.69095 L 6.585164 124.69095 Z" fill="white"/>
        </g>
      </g>
      <g id="Group_315">
        <g id="Graphic_317">
          <path d="M 21.44702 126.23796 L 29.237956 118.44702 C 30.10065 117.58433 31.49935 117.58433 32.362044 118.44702 L 40.15298 126.23796 C 41.015673 127.10065 41.015673 128.49935 40.15298 129.36204 L 32.362044 137.15298 C 31.49935 138.01567 30.10065 138.01567 29.237956 137.15298 L 21.44702 129.36204 C 20.584327 128.49935 20.584327 127.10065 21.44702 126.23796 Z" fill="#72c930"/>
        </g>
        <g id="Graphic_316">
          <path d="M 31.40331 133.49084 L 30.203326 133.49084 L 30.203326 124.98185 L 27.930627 124.98185 L 27.930627 123.89096 L 33.6851 123.89096 L 33.6851 124.98185 L 31.40331 124.98185 Z" fill="white"/>
        </g>
      </g>
      <g id="Group_310">
        <g id="Graphic_314">
          <path d="M 9.30454 139.8 L -1.2 147.43636 L 2.81297 159.8 L 15.78703 159.8 L 19.8 147.43636 Z" fill="#ff5e5e"/>
        </g>
        <g id="Graphic_313">
          <path d="M 2.749008 155.96364 L 1.5505644 155.96364 L 1.5505644 146.36364 L 2.9305904 146.36364 C 5.881304 146.36364 6.798295 147.38182 6.798295 149.13636 C 6.798295 151.16364 5.263924 151.93636 3.439021 151.93636 L 2.749008 151.93636 Z M 2.749008 150.87273 L 3.130331 150.87273 C 4.346933 150.87273 5.672484 150.64545 5.672484 149.11818 C 5.672484 147.59091 4.2470625 147.43636 3.066777 147.43636 L 2.749008 147.43636 Z" fill="white"/>
        </g>
        <g id="Graphic_312">
          <path d="M 8.78703 150.97273 C 9.026129 150.2568 9.70391 149.781 10.457588 149.8 C 10.780698 149.81428 11.094137 149.9147 11.3655 150.09091 L 10.84799 151.13636 C 10.655004 150.96783 10.404738 150.87996 10.148898 150.89091 C 8.914137 150.89091 8.759792 152.03636 8.759792 153.0091 L 8.759792 155.93636 L 7.65214 155.93636 L 7.65214 150.00909 L 8.78703 150.00909 Z" fill="white"/>
        </g>
        <g id="Graphic_311">
          <path d="M 17.866148 153 C 17.856132 154.75368 16.430868 156.16862 14.679438 156.16361 C 12.928008 156.1586 11.510834 154.73555 11.510817 152.98184 C 11.5108 151.22812 12.927947 149.80504 14.679377 149.8 C 15.53065 149.785 16.351346 150.11762 16.952523 150.72129 C 17.5537 151.32496 17.883555 152.14767 17.866148 153 Z M 12.654734 153 C 12.674706 154.1197 13.593888 155.01313 14.712236 154.99986 C 15.830584 154.98658 16.728359 154.0716 16.72182 152.95173 C 16.715281 151.83187 15.806883 150.92745 14.688457 150.92727 C 13.553769 150.93727 12.640612 151.8638 12.645655 153 Z" fill="white"/>
        </g>
      </g>
      <g id="Group_305">
        <g id="Graphic_309">
          <path d="M 32.30454 139.8 L 21.8 147.43636 L 25.81297 159.8 L 38.78703 159.8 L 42.8 147.43636 Z" fill="#9585ff"/>
        </g>
        <g id="Graphic_308">
          <path d="M 25.78944 155.96364 L 24.590996 155.96364 L 24.590996 146.36364 L 25.961943 146.36364 C 28.912656 146.36364 29.829647 147.38182 29.829647 149.13636 C 29.829647 151.16364 28.295276 151.93636 26.470374 151.93636 L 25.78944 151.93636 Z M 25.78944 150.87273 L 26.170763 150.87273 C 27.387364 150.87273 28.712916 150.64545 28.712916 149.11818 C 28.712916 147.59091 27.287494 147.43636 26.09813 147.43636 L 25.78944 147.43636 Z" fill="white"/>
        </g>
        <g id="Graphic_307">
          <path d="M 34.752194 153.38182 C 34.75587 154.51513 34.07689 155.5389 33.032256 155.97515 C 31.98762 156.4114 30.783367 156.1741 29.981728 155.37402 C 29.18009 154.57395 28.939174 153.36891 29.37146 152.3215 C 29.80375 151.2741 30.823976 150.59092 31.955826 150.59091 C 32.701867 150.57077 33.42348 150.85804 33.95206 151.38559 C 34.48064 151.91313 34.76988 152.63475 34.752194 153.38182 Z M 30.212635 153.38182 C 30.212635 154.38597 31.025607 155.2 32.02846 155.2 C 33.03131 155.2 33.844283 154.38597 33.844283 153.38182 C 33.844283 152.37766 33.03131 151.56364 32.02846 151.56364 C 31.025607 151.56364 30.212635 152.37766 30.212635 153.38182 Z" fill="white"/>
        </g>
        <g id="Graphic_306">
          <path d="M 38.087938 151.34545 C 37.9492 151.04323 37.6567 150.841 37.32529 150.81818 C 36.991175 150.81294 36.713534 151.07482 36.698833 151.40909 C 36.698833 151.93636 37.388846 152.16364 38.087938 152.48182 C 38.78703 152.8 39.467964 153.23636 39.467964 154.18182 C 39.460873 154.7195 39.238815 155.2319 38.851474 155.60437 C 38.46413 155.97684 37.94384 156.17828 37.407004 156.16364 C 36.507576 156.17966 35.688506 155.6473 35.336965 154.81818 L 36.32659 154.34545 C 36.50042 154.79851 36.931442 155.10062 37.416083 155.1091 C 37.65014 155.12409 37.880047 155.04198 38.05179 154.88205 C 38.223535 154.72212 38.32198 154.49847 38.323995 154.26364 C 38.324786 153.9824 38.161555 153.72657 37.906355 153.6091 L 36.780545 153.0091 C 36.11777 152.65455 35.627497 152.31818 35.627497 151.5 C 35.652243 150.5467 36.436516 149.78974 37.388846 149.8 C 38.099233 149.79304 38.74843 150.20153 39.050324 150.84545 Z" fill="white"/>
        </g>
      </g>
      <g id="Group_302">
        <g id="Graphic_304">
          <path d="M 55.30454 139.8 L 44.8 147.43636 L 48.81297 159.8 L 61.78703 159.8 L 65.8 147.43636 Z" fill="#59d9b8"/>
        </g>
        <g id="Graphic_303">
          <path d="M 52.71699 146.36364 L 53.87912 146.36364 C 55.69494 146.36364 57.39274 146.83636 57.39274 149 C 57.40485 149.74738 57.0124 150.4429 56.366796 150.81818 C 57.50137 151.07505 58.303104 152.08988 58.29157 153.25455 C 58.29157 155.18182 56.64825 155.98182 54.95953 155.98182 L 52.71699 155.98182 Z M 53.87912 150.61818 L 54.18781 150.61818 C 55.3227 150.61818 56.24877 150.39091 56.24877 149.01818 C 56.24877 147.64545 55.340856 147.43636 54.215045 147.43636 L 53.87912 147.43636 Z M 53.87912 154.9 L 54.78703 154.9 C 55.89468 154.9 57.04773 154.57273 57.04773 153.2091 C 57.04773 151.84545 55.69494 151.61818 54.65084 151.61818 L 53.87912 151.61818 Z" fill="white"/>
        </g>
      </g>
      <g id="Group_297">
        <g id="Graphic_301">
          <path d="M 78.3 139.8 L 67.8 147.4381 L 71.81359 159.8 L 84.79592 159.8 L 88.8 147.4381 Z" fill="#444"/>
        </g>
        <g id="Graphic_300">
          <path d="M 78.3 141.41275 L 69.31821 147.94644 L 72.75147 158.52092 L 83.85667 158.52092 L 87.28179 147.94644 Z" fill="white"/>
          <path d="M 78.3 141.41275 L 69.31821 147.94644 L 72.75147 158.52092 L 83.85667 158.52092 L 87.28179 147.94644 Z" stroke="white" stroke-linecap="butt" stroke-linejoin="round" stroke-width="1"/>
        </g>
        <g id="Graphic_299">
          <path d="M 73.41166 146.52696 L 73.41166 151.61267 C 73.41166 153.01267 73.830135 154.31743 75.48503 154.31743 C 77.13992 154.31743 77.5584 153.01267 77.5584 151.61267 L 77.5584 146.52696 L 78.63312 146.52696 L 78.63312 151.97458 C 78.70636 152.84825 78.405 153.71187 77.8043 154.34973 C 77.20361 154.98758 76.3603 155.33945 75.48503 155.31743 C 74.60975 155.33945 73.766445 154.98758 73.16575 154.34973 C 72.565055 153.71187 72.26369 152.84825 72.33693 151.97458 L 72.33693 146.52696 Z" fill="#444"/>
        </g>
        <g id="Graphic_298">
          <path d="M 80.74454 150.51743 C 81.08496 149.9582 81.69806 149.624 82.35187 149.64124 C 83.85459 149.64124 84.25405 150.66029 84.25405 151.95553 L 84.25405 155.146 L 83.2459 155.146 L 83.2459 152.07934 C 83.2459 151.12696 83.12225 150.546 82.06655 150.546 C 80.74454 150.546 80.74454 151.70791 80.74454 152.67934 L 80.74454 155.13648 L 79.71736 155.13648 L 79.71736 149.79362 L 80.74454 149.79362 Z" fill="#444"/>
        </g>
      </g>
    </g>
  </g>
</svg>
