<svg viewBox="0 0 130 39" xmlns="http://www.w3.org/2000/svg">
  <defs>
    <style>.a{fill:#46b9cc;}.b{fill:#249eb3;}.c{fill:#fff;}.d{fill:#444;}</style>
  </defs>
  <path class="a" d="M40.73,34.64c-5.6,0-8.46,4.2-18.1,4.2C11,38.84,1.5,31.43,1.5,19.44S11,0,22.63,0c9.64,0,12.5,4.21,18.1,4.21S49.19,0,58.84,0C70.5,0,80,7.46,80,19.44s-9.46,19.4-21.12,19.4C49.19,38.84,46.33,34.64,40.73,34.64Z"/>
  <path class="b" d="m53.92 19.44c0 8.4-5.91 15.2-13.19 15.2s-13.19-6.8-13.19-15.2 5.91-15.19 13.19-15.19 13.19 6.8 13.19 15.19z"/>
  <path class="c" d="M15.05,26.75H11.24V15.31H8.09V12.08H18.21v3.23H15.05Z"/>
  <path class="c" d="M37,19.14a7.8,7.8,0,0,1-8.11,8.1,7.81,7.81,0,0,1-8.12-8.1c0-4.44,3.9-7.55,8.12-7.55S37,14.7,37,19.14Z"/>
  <path class="c" d="M55.38,18.56c0,2.14-.2,4-1.5,5.8a7.1,7.1,0,0,1-6.05,2.88A7.42,7.42,0,0,1,40,19.49c0-4.77,3.23-7.9,8-7.9a6.82,6.82,0,0,1,6.62,4.11L51,17.22a3.32,3.32,0,0,0-3.17-2.34c-2.51,0-3.82,2.39-3.82,4.63s1.36,4.59,3.88,4.59a2.77,2.77,0,0,0,3.07-2.54H47.81v-3Z"/>
  <path class="c" d="m74.57 19.14a8.12 8.12 0 0 1-16.23 0c0-4.44 3.89-7.55 8.11-7.55s8.12 3.11 8.12 7.55z"/>
  <path class="d" d="M89.28,21l3.56-8.92H97L90.72,26.75h-3L81.59,12.07h4.14Z"/>
  <path class="d" d="m102.39 24.2-1 2.55h-4l5.61-14.68h4.16l5.53 14.68h-4.09l-0.95-2.55zm2.67-7.59-1.58 4.67h3.18z"/>
  <path class="d" d="M128.1,26.75h-4.75l-3.6-5.64h0v5.64H115.9V12.07h5.7c2.9,0,5.1,1.39,5.1,4.52a4,4,0,0,1-3.21,4.15Zm-8.39-8.09h.37c1.25,0,2.65-.24,2.65-1.83S121.33,15,120.08,15h-.37Z"/>
</svg>