<?xml version="1.0" encoding="utf-8"?>
<!-- Generator: Adobe Illustrator 24.2.3, SVG Export Plug-In . SVG Version: 6.00 Build 0)  -->
<svg version="1.1" id="Layer_1" xmlns="http://www.w3.org/2000/svg" xmlns:xlink="http://www.w3.org/1999/xlink" x="0px" y="0px"
	 viewBox="0 0 80.5 80.5" style="enable-background:new 0 0 80.5 80.5;" xml:space="preserve">
<style type="text/css">
	.st0{fill:#46B9CC;}
	.st1{fill:#249EB3;}
	.st2{fill:#FFFFFF;}
	.st3{fill:#444444;}
	@media (prefers-color-scheme: dark) {
        .st3{fill:#CCCCCC;}
    }
</style>
<path class="st0" d="M40.2,46.8c-5.6,0-8.5,4.2-18.1,4.2C10.5,51,1,43.6,1,31.6s9.5-19.4,21.1-19.4c9.6,0,12.5,4.2,18.1,4.2
	s8.5-4.2,18.1-4.2c11.7,0,21.2,7.5,21.2,19.4S70,51,58.4,51C48.7,51,45.8,46.8,40.2,46.8z"/>
<path class="st1" d="M53.4,31.6c0,8.4-5.9,15.2-13.2,15.2S27,40,27,31.6S33,16.4,40.2,16.4S53.4,23.2,53.4,31.6z"/>
<path class="st2" d="M14.6,38.9h-3.8V27.5H7.6v-3.2h10.1v3.2h-3.2V38.9z"/>
<path class="st2" d="M36.5,31.3c0.2,4.3-3.2,7.9-7.5,8.1c-0.2,0-0.4,0-0.6,0c-4.3,0.2-7.9-3.2-8.1-7.5c0-0.2,0-0.4,0-0.6
	c0-4.4,3.9-7.6,8.1-7.6S36.5,26.8,36.5,31.3z"/>
<path class="st2" d="M54.9,30.7c0,2.1-0.2,4-1.5,5.8c-1.4,1.9-3.7,3-6,2.9c-4.1,0.2-7.6-2.9-7.8-7c0-0.3,0-0.5,0-0.8
	c0-4.8,3.2-7.9,8-7.9c2.8-0.1,5.5,1.5,6.6,4.1l-3.6,1.5C50.1,28,48.8,27,47.3,27c-2.5,0-3.8,2.4-3.8,4.6s1.4,4.6,3.9,4.6
	c1.5,0.2,2.9-0.9,3.1-2.4c0,0,0-0.1,0-0.1h-3.2v-3L54.9,30.7z"/>
<path class="st2" d="M74.1,31.3c-0.2,4.5-3.9,8-8.4,7.8c-4.3-0.1-7.7-3.6-7.8-7.8c0-4.4,3.9-7.6,8.1-7.6S74.1,26.8,74.1,31.3z"/>
<path class="st3" d="M24.7,62.6l3.6-8.9h4.2l-6.3,14.7h-3L17,53.7h4.1L24.7,62.6z"/>
<path class="st3" d="M37.8,65.8l-1,2.5h-4l5.6-14.7h4.2l5.5,14.7H44l-0.9-2.5H37.8z M40.5,58.2l-1.6,4.7h3.2L40.5,58.2z"/>
<path class="st3" d="M63.5,68.4h-4.8l-3.6-5.6l0,0v5.6h-3.9V53.7H57c2.9,0,5.1,1.4,5.1,4.5c0.1,2-1.3,3.8-3.2,4.1L63.5,68.4z
	 M55.1,60.3h0.4c1.2,0,2.7-0.2,2.7-1.8s-1.4-1.8-2.7-1.8h-0.4L55.1,60.3z"/>
</svg>
