<?xml version="1.0" encoding="utf-8"?>
<!-- Generator: Adobe Illustrator 23.0.2, SVG Export Plug-In . SVG Version: 6.00 Build 0)  -->
<svg version="1.1" id="レイヤー_1" xmlns="http://www.w3.org/2000/svg" xmlns:xlink="http://www.w3.org/1999/xlink" x="0px"
	 y="0px" viewBox="0 0 103 31" style="enable-background:new 0 0 103 31;" xml:space="preserve">
<style type="text/css">
	.st0{fill:#46B9CC;}
	.st1{fill:#249EB3;}
	.st2{fill:#FFFFFF;}
	.st3{fill:#444444;}
</style>
<g>
	<g>
		<path class="st0" d="M30.94,27.29c-4.42,0-6.67,3.31-14.28,3.31C7.46,30.6,0,24.75,0,15.3S7.46,0,16.66,0
			c7.61,0,9.86,3.31,14.28,3.31S37.61,0,45.22,0c9.2,0,16.66,5.85,16.66,15.3s-7.46,15.3-16.66,15.3
			C37.61,30.6,35.36,27.29,30.94,27.29z"/>
	</g>
	<path class="st1" d="M41.34,15.3c0,6.62-4.66,11.99-10.4,11.99c-5.74,0-10.4-5.37-10.4-11.99s4.66-11.99,10.4-11.99
		C36.68,3.31,41.34,8.68,41.34,15.3z"/>
	<g>
		<path class="st2" d="M10.69,21.09H7.68v-9.02H5.19V9.51h7.98v2.55h-2.49V21.09z"/>
		<path class="st2" d="M28.01,15.08c0,3.75-2.69,6.38-6.4,6.38c-3.71,0-6.4-2.64-6.4-6.38c0-3.5,3.07-5.96,6.4-5.96
			C24.94,9.13,28.01,11.58,28.01,15.08z"/>
		<path class="st2" d="M42.49,14.62c-0.03,1.69-0.15,3.13-1.18,4.57c-1.14,1.58-2.84,2.27-4.77,2.27c-3.64,0-6.17-2.47-6.17-6.11
			c0-3.76,2.55-6.23,6.28-6.23c2.38,0,4.22,1.07,5.22,3.24L39,13.56c-0.41-1.1-1.29-1.84-2.5-1.84c-1.98,0-3.01,1.89-3.01,3.65
			c0,1.8,1.07,3.62,3.05,3.62c1.3,0,2.3-0.68,2.43-2.01h-2.46v-2.36H42.49z"/>
		<path class="st2" d="M57.62,15.08c0,3.75-2.69,6.38-6.4,6.38c-3.71,0-6.4-2.64-6.4-6.38c0-3.5,3.07-5.96,6.4-5.96
			C54.55,9.13,57.62,11.58,57.62,15.08z"/>
	</g>
	<g>
		<path class="st3" d="M69.23,16.5l2.81-7.04h3.27l-4.95,11.59h-2.34L63.16,9.46h3.27L69.23,16.5z"/>
		<path class="st3" d="M80.55,19.03l-0.8,2.01h-3.2l4.46-11.59h3.29l4.36,11.59h-3.21l-0.75-2.01H80.55z M82.66,13.04h-0.03
			l-1.25,3.69h2.5L82.66,13.04z"/>
		<path class="st3" d="M100.77,21.04h-3.75l-2.84-4.46h-0.03v4.46h-3.01V9.46h4.5c2.29,0,4.03,1.09,4.03,3.56
			c0,1.6-0.89,2.98-2.54,3.27L100.77,21.04z M94.14,14.65h0.29c0.98,0,2.09-0.18,2.09-1.44c0-1.26-1.11-1.44-2.09-1.44h-0.29V14.65z
			"/>
	</g>
</g>
</svg>
