<svg xmlns="http://www.w3.org/2000/svg" width="1000" height="1000" viewBox="0 0 1000 1000">
  <g fill="currentColor" transform="translate(0 850) scale(1 -1)">
    <path d="M688 662a306 306 0 0 1-188-65 306 306 0 0 1-188 65 312 312 0 0 1 0-624 306 306 0 0 1 188 65 306 306 0 0 1 188-65 312 312 0 0 1 0 624z m-188-474a243 243 0 0 0 0 324 243 243 0 0 0 0-324z m-438 162a251 251 0 0 0 250 250 244 244 0 0 0 141-50 308 308 0 0 1 0-410 244 244 0 0 0-141-45 251 251 0 0 0-250 255z m626-250a244 244 0 0 0-141 45 308 308 0 0 1 0 410 244 244 0 0 0 141 45 250 250 0 1 0 0-500z"/>
    <path d="M500 558a277 277 0 0 1 0-416z m0-416a277 277 0 0 1 0 416z"/>
  </g>
</svg>
